<?xml version="1.0" encoding="utf-8"?>
<!-- Generator: Adobe Illustrator 27.8.1, SVG Export Plug-In . SVG Version: 6.00 Build 0)  -->
<svg version="1.1" id="Capa_1" xmlns="http://www.w3.org/2000/svg" xmlns:xlink="http://www.w3.org/1999/xlink" x="0px" y="0px"
	 viewBox="0 0 1469 322.5" style="enable-background:new 0 0 1469 322.5;" xml:space="preserve">
<style type="text/css">
	.st0{fill:#FFFFFF;}
	.st1{font-family:'Montserrat-Regular';}
	.st2{font-size:93.5335px;}
</style>
<text transform="matrix(1 0 0 1 211.1963 125.8516)" class="st0 st1 st2">ESTAS A UN </text>
<g>
	<g>
		<path class="st0" d="M799.59,126.46l15.67-65.91h15.67l-16.26,65.91H799.59z M801.49,64.21v-3.66h27.68v3.66H801.49z
			 M837.96,126.46l12.6-52.58c0.19-0.78,0.34-1.46,0.44-2.05c0.1-0.59,0.15-1.17,0.15-1.76c0-1.85-0.51-3.17-1.54-3.95
			c-1.03-0.78-2.32-1.17-3.88-1.17c-2.83,0-5.74,1.2-8.72,3.59c-2.98,2.39-5.71,5.64-8.2,9.74c-2.49,4.1-4.42,8.74-5.79,13.92
			l4.1-18.6h1.03c2.83-3.81,6.32-7.23,10.47-10.25c4.15-3.03,8.81-4.54,13.99-4.54c5.57,0,9.4,1.64,11.5,4.91
			c2.1,3.27,2.46,7.79,1.1,13.55l-12.01,49.21H837.96z M890.11,128.36c-3.42,0-6.13-0.93-8.13-2.78c-2-1.85-3-4.3-3-7.32
			c0-0.78,0.07-1.56,0.22-2.34c0.15-0.78,0.27-1.51,0.37-2.2l9.52-39.84c0.19-0.78,0.34-1.46,0.44-2.05
			c0.1-0.59,0.15-1.17,0.15-1.76c0-1.85-0.51-3.17-1.54-3.95c-1.03-0.78-2.32-1.17-3.88-1.17c-2.83,0-5.74,1.2-8.72,3.59
			c-2.98,2.39-5.71,5.64-8.2,9.74c-2.49,4.1-4.42,8.74-5.79,13.92l4.1-18.6h1.02c2.83-3.81,6.32-7.23,10.47-10.25
			c4.15-3.03,8.81-4.54,13.99-4.54c3.71,0,6.88,0.95,9.52,2.86c2.64,1.9,3.96,4.96,3.96,9.15c0,1.76-0.29,3.91-0.88,6.45
			l-8.79,35.01c-0.29,1.27-0.49,2.3-0.59,3.08c-0.1,0.78-0.15,1.42-0.15,1.9c0,2.44,1.07,3.66,3.22,3.66c2.15,0,4.47-1.41,6.96-4.25
			c2.49-2.83,5.25-7.67,8.28-14.5l2.93,1.32c-1.86,4.3-4,8.35-6.44,12.16c-2.44,3.81-5.23,6.88-8.35,9.23
			C897.68,127.19,894.11,128.36,890.11,128.36z"/>
		<path class="st0" d="M943.57,128.36c-4.1,0-7.86-1.1-11.28-3.3c-3.42-2.2-6.15-5.35-8.2-9.45c-2.05-4.1-3.08-8.94-3.08-14.5
			c0-5.66,1.07-11.03,3.22-16.11c2.15-5.08,5-9.59,8.57-13.55c3.56-3.96,7.57-7.05,12.01-9.3c4.44-2.25,8.96-3.37,13.55-3.37
			c4.49,0,7.81,1.03,9.96,3.08c2.15,2.05,3.71,4.59,4.69,7.62h0.88l-3.08,13.33c0.1-1.07,0.19-2,0.29-2.78
			c0.1-0.78,0.15-1.66,0.15-2.64c0-4.2-1.05-7.64-3.15-10.33c-2.1-2.68-4.76-4.03-7.98-4.03c-2.93,0-5.59,1.1-7.98,3.3
			c-2.39,2.2-4.52,5.1-6.37,8.71c-1.86,3.61-3.42,7.5-4.69,11.64c-1.27,4.15-2.22,8.23-2.86,12.23c-0.64,4-0.95,7.47-0.95,10.4
			c0,4.69,0.78,8.25,2.34,10.69c1.56,2.44,3.86,3.66,6.88,3.66c2.05,0,4.2-0.63,6.44-1.9c2.25-1.27,4.52-3.51,6.81-6.74
			c2.29-3.22,4.47-7.71,6.52-13.48l-1.76,14.65h-0.88c-2.15,3.91-5.03,6.91-8.64,9.01C951.38,127.31,947.57,128.36,943.57,128.36z
			 M974.77,128.36c-1.56,0-3.17-0.42-4.83-1.25c-1.66-0.83-3.03-2.25-4.1-4.25c-1.08-2-1.61-4.76-1.61-8.28
			c0-1.46,0.12-3.08,0.37-4.83c0.24-1.76,0.61-3.71,1.1-5.86l10.25-43.36h14.21l-10.84,44.38c-0.68,3.03-1.22,5.59-1.61,7.69
			c-0.39,2.1-0.59,3.83-0.59,5.2c0,2.83,0.83,4.25,2.49,4.25c1.66,0,3.74-1.49,6.23-4.47c2.49-2.98,4.96-7.4,7.4-13.26l2.93,1.32
			c-1.46,3.61-3.25,7.15-5.35,10.62c-2.1,3.47-4.49,6.35-7.18,8.64C980.95,127.21,977.99,128.36,974.77,128.36z"/>
		<path class="st0" d="M1015.63,128.36c-6.54,0-11.57-1.42-15.09-4.25c-3.52-2.83-5.27-6.1-5.27-9.81c0-2.44,0.66-4.32,1.98-5.64
			s3.05-1.98,5.2-1.98c1.76,0,3.1,0.44,4.03,1.32c0.93,0.88,1.39,2.05,1.39,3.52c0,1.76-0.44,3.22-1.32,4.39
			c-0.88,1.17-1.32,2.34-1.32,3.52c0,1.27,0.85,2.34,2.56,3.22c1.71,0.88,4.42,1.32,8.13,1.32c5.96,0,10.37-1.12,13.26-3.37
			c2.88-2.25,4.32-4.93,4.32-8.06c0-2.73-0.93-5.03-2.78-6.88c-1.86-1.85-4.13-3.54-6.81-5.05c-2.69-1.51-5.4-3.12-8.13-4.83
			c-2.73-1.71-5.03-3.81-6.88-6.3c-1.86-2.49-2.78-5.64-2.78-9.45c0-3.61,0.95-6.93,2.86-9.96c1.9-3.03,4.66-5.47,8.28-7.32
			c3.61-1.85,7.96-2.78,13.04-2.78c3.71,0,6.83,0.51,9.37,1.54c2.54,1.03,4.47,2.39,5.79,4.1c1.32,1.71,1.98,3.69,1.98,5.93
			c0,2.25-0.64,4.05-1.9,5.42c-1.27,1.37-2.88,2.05-4.83,2.05c-1.46,0-2.64-0.39-3.52-1.17c-0.88-0.78-1.32-1.85-1.32-3.22
			c0-1.46,0.39-2.61,1.17-3.44c0.78-0.83,1.17-1.83,1.17-3c0-1.37-0.78-2.42-2.34-3.15c-1.56-0.73-3.66-1.1-6.3-1.1
			c-3.61,0-6.64,0.73-9.08,2.2c-2.44,1.46-3.66,3.66-3.66,6.59c0,2.64,0.9,4.83,2.71,6.59c1.81,1.76,4.08,3.37,6.81,4.83
			c2.73,1.46,5.44,3.08,8.13,4.83c2.68,1.76,4.93,3.93,6.74,6.52c1.81,2.59,2.71,5.88,2.71,9.89c0,4.49-1.27,8.47-3.81,11.94
			c-2.54,3.47-5.96,6.18-10.25,8.13C1025.54,127.39,1020.81,128.36,1015.63,128.36z"/>
		<path class="st0" d="M1079.64,128.36c-4.1,0-7.86-1.1-11.28-3.3c-3.42-2.2-6.15-5.35-8.2-9.45s-3.08-8.94-3.08-14.5
			c0-5.66,1.07-11.03,3.22-16.11c2.15-5.08,5-9.59,8.57-13.55c3.56-3.96,7.57-7.05,12.01-9.3c4.44-2.25,8.96-3.37,13.55-3.37
			c4.49,0,7.81,1.03,9.96,3.08c2.15,2.05,3.71,4.59,4.69,7.62h0.88l-3.08,13.33c0.1-1.07,0.19-2,0.29-2.78
			c0.1-0.78,0.15-1.66,0.15-2.64c0-4.2-1.05-7.64-3.15-10.33c-2.1-2.68-4.76-4.03-7.98-4.03c-2.93,0-5.59,1.1-7.98,3.3
			c-2.39,2.2-4.52,5.1-6.37,8.71c-1.86,3.61-3.42,7.5-4.69,11.64c-1.27,4.15-2.22,8.23-2.86,12.23c-0.64,4-0.95,7.47-0.95,10.4
			c0,4.69,0.78,8.25,2.34,10.69c1.56,2.44,3.86,3.66,6.88,3.66c2.05,0,4.2-0.63,6.44-1.9c2.25-1.27,4.52-3.51,6.81-6.74
			c2.29-3.22,4.47-7.71,6.52-13.48l-1.76,14.65h-0.88c-2.15,3.91-5.03,6.91-8.64,9.01C1087.45,127.31,1083.65,128.36,1079.64,128.36
			z M1110.84,128.36c-1.56,0-3.17-0.42-4.83-1.25c-1.66-0.83-3.03-2.25-4.1-4.25c-1.08-2-1.61-4.76-1.61-8.28
			c0-1.46,0.12-3.08,0.37-4.83c0.24-1.76,0.61-3.71,1.1-5.86l10.25-43.36h14.21l-10.84,44.38c-0.68,3.03-1.22,5.59-1.61,7.69
			c-0.39,2.1-0.59,3.83-0.59,5.2c0,2.83,0.83,4.25,2.49,4.25c1.66,0,3.74-1.49,6.23-4.47c2.49-2.98,4.96-7.4,7.4-13.26l2.93,1.32
			c-1.46,3.61-3.25,7.15-5.35,10.62c-2.1,3.47-4.49,6.35-7.18,8.64C1117.02,127.21,1114.06,128.36,1110.84,128.36z"/>
		<path class="st0" d="M1122.12,173.92c-3.61,0-6.93-0.95-9.96-2.86c-3.03-1.9-4.54-4.52-4.54-7.84c0-2.25,0.68-3.98,2.05-5.2
			c1.37-1.22,3.08-1.83,5.13-1.83c2.15,0,3.83,0.63,5.05,1.9c1.22,1.27,1.83,2.73,1.83,4.39c0,0.68-0.07,1.49-0.22,2.42
			c-0.15,0.93-0.22,1.68-0.22,2.27c0,1.56,1.08,2.34,3.22,2.34c0.59,0,1.29-0.17,2.12-0.51c0.83-0.34,1.74-1.15,2.71-2.42
			c0.98-1.27,2.03-3.32,3.15-6.15c1.12-2.83,2.17-6.74,3.15-11.72l18.31-88.18h15.67l-18.75,85.54c-0.98,4.49-2.47,8.47-4.47,11.94
			c-2,3.46-4.32,6.37-6.96,8.71c-2.64,2.34-5.44,4.12-8.42,5.35C1128,173.31,1125.05,173.92,1122.12,173.92z M1140.13,64.21v-3.66
			h27.68v3.66H1140.13z M1166.5,38.72c-2.73,0-5.05-0.95-6.96-2.86s-2.86-4.22-2.86-6.96c0-2.83,0.95-5.2,2.86-7.1
			s4.22-2.86,6.96-2.86c2.83,0,5.2,0.95,7.1,2.86s2.86,4.27,2.86,7.1c0,2.74-0.95,5.05-2.86,6.96S1169.33,38.72,1166.5,38.72z"/>
		<path class="st0" d="M1209.71,128.36c-6.06,0-11.38-1.42-15.96-4.25c-4.59-2.83-8.13-6.52-10.62-11.06
			c-2.49-4.54-3.73-9.35-3.73-14.43c0-4.98,1.15-9.84,3.44-14.57c2.29-4.74,5.37-9.01,9.23-12.82c3.86-3.81,8.23-6.83,13.11-9.08
			c4.88-2.25,9.86-3.37,14.94-3.37c4.1,0,7.71,0.73,10.84,2.2c3.12,1.46,5.59,3.49,7.4,6.08c1.81,2.59,2.71,5.59,2.71,9.01
			c0,4.1-1.32,7.71-3.96,10.84c-2.64,3.13-6.25,5.54-10.84,7.25c-4.59,1.71-9.86,2.56-15.82,2.56c-2.25,0-4.59-0.1-7.03-0.29
			c-2.44-0.19-4.61-0.44-6.52-0.73s-3.2-0.49-3.88-0.59l0.73-3.66c1.66,0.68,3.37,1.1,5.13,1.25s3.61,0.22,5.57,0.22
			c5.86,0,10.52-0.88,13.99-2.64c3.46-1.76,5.96-4.05,7.47-6.88c1.51-2.83,2.27-5.91,2.27-9.23c0-3.9-0.83-6.71-2.49-8.42
			c-1.66-1.71-3.86-2.56-6.59-2.56c-3.61,0-6.81,1.34-9.59,4.03c-2.78,2.69-5.1,6.15-6.96,10.4c-1.86,4.25-3.25,8.77-4.17,13.55
			c-0.93,4.79-1.39,9.33-1.39,13.62c0,6.54,1.12,11.38,3.37,14.5c2.25,3.13,5.86,4.69,10.84,4.69c4,0,8.25-1.22,12.74-3.66
			c4.49-2.44,8.69-6.88,12.6-13.33l2.93,2.05c-3.13,5.67-7.13,10.3-12.01,13.92C1222.55,126.55,1216.64,128.36,1209.71,128.36z"/>
	</g>
</g>
<text transform="matrix(1 0 0 1 12.4526 283.3955)" class="st0 st1 st2">DE ESTAR DE </text>
<g>
	<g>
		<path class="st0" d="M704.58,287.48c-7.18,0-12.58-2.01-16.21-6.04c-3.64-4.02-5.45-8.99-5.45-14.91c0-1.16,0.12-2.47,0.36-3.93
			c0.24-1.45,0.7-3.68,1.38-6.69l18.9-79.98h15.56l-21.52,89.58c-0.2,0.97-0.39,2.04-0.58,3.2c-0.2,1.16-0.29,2.42-0.29,3.78
			c0,3.49,0.77,6.16,2.33,8c1.55,1.84,3.68,2.76,6.4,2.76c3.29,0,6.45-1.31,9.45-3.93c3-2.62,5.69-6.13,8.07-10.54
			c2.37-4.41,4.24-9.38,5.6-14.91c1.36-5.53,2.04-11.2,2.04-17.01c0-4.94-0.61-8.48-1.82-10.62c-1.21-2.13-3.37-3.2-6.47-3.2
			c-3.39,0-6.64,1.21-9.74,3.64c-3.1,2.42-5.96,6.16-8.58,11.2l3.05-12.8h1.02c1.84-1.84,4.19-3.42,7.05-4.73
			c2.86-1.31,5.94-1.96,9.23-1.96c3.88,0,7.46,1.02,10.76,3.05c3.29,2.04,5.96,4.99,8,8.87c2.04,3.88,3.05,8.53,3.05,13.96
			c0,5.72-1.14,11.17-3.42,16.36c-2.28,5.19-5.36,9.79-9.23,13.82c-3.88,4.02-8.31,7.2-13.31,9.53
			C715.22,286.32,710.01,287.48,704.58,287.48z M689.02,179.58v-3.64h28.36v3.64H689.02z"/>
		<path class="st0" d="M772.2,287.34c-3.69,0-6.88-0.95-9.6-2.84c-2.72-1.89-4.07-4.92-4.07-9.09c0-1.84,0.29-3.97,0.87-6.4
			l11.92-48.86h15.12l-12.51,52.21c-0.1,0.68-0.22,1.33-0.36,1.96c-0.15,0.63-0.22,1.24-0.22,1.82c0,1.65,0.51,2.86,1.53,3.63
			c1.02,0.78,2.3,1.16,3.85,1.16c2.23,0,4.51-0.68,6.83-2.04c2.33-1.36,4.56-3.27,6.69-5.74c2.13-2.47,4.05-5.31,5.74-8.51
			c1.7-3.2,3.08-6.69,4.14-10.47l-3.2,17.45h-1.02c-3.01,3.98-6.67,7.59-10.98,10.83C782.64,285.71,777.72,287.34,772.2,287.34z
			 M759.84,223.79v-3.64h23.12v3.64H759.84z M810.3,287.34c-1.84,0-3.69-0.41-5.53-1.24c-1.84-0.82-3.34-2.23-4.51-4.22
			c-1.16-1.99-1.75-4.73-1.75-8.22c0-1.36,0.12-2.91,0.36-4.65c0.24-1.75,0.6-3.68,1.09-5.82l10.33-43.04h14.83l-10.91,44.06
			c-0.68,3.01-1.21,5.55-1.6,7.63c-0.39,2.09-0.58,3.76-0.58,5.02c0,2.91,0.97,4.36,2.91,4.36c2.04,0,4.29-1.53,6.76-4.58
			s5.06-7.39,7.78-13.02l2.91,1.31c-1.94,4.65-4.02,8.65-6.25,12c-2.23,3.34-4.63,5.91-7.2,7.71
			C816.38,286.44,813.5,287.34,810.3,287.34z"/>
		<path class="st0" d="M868.32,287.48c-6.01,0-11.29-1.41-15.85-4.22c-4.56-2.81-8.07-6.47-10.54-10.98
			c-2.47-4.51-3.71-9.28-3.71-14.32c0-4.94,1.14-9.77,3.42-14.47c2.28-4.7,5.33-8.94,9.16-12.72c3.83-3.78,8.17-6.79,13.02-9.02
			c4.85-2.23,9.79-3.34,14.83-3.34c4.07,0,7.66,0.73,10.76,2.18c3.1,1.45,5.55,3.47,7.34,6.04c1.79,2.57,2.69,5.55,2.69,8.94
			c0,4.07-1.31,7.66-3.93,10.76c-2.62,3.1-6.21,5.5-10.76,7.2c-4.56,1.7-9.79,2.54-15.71,2.54c-2.23,0-4.56-0.1-6.98-0.29
			c-2.42-0.19-4.58-0.44-6.47-0.73c-1.89-0.29-3.18-0.48-3.85-0.58l0.73-3.64c1.65,0.68,3.34,1.09,5.09,1.24
			c1.75,0.15,3.59,0.22,5.53,0.22c5.82,0,10.45-0.87,13.89-2.62c3.44-1.75,5.91-4.02,7.42-6.83c1.5-2.81,2.25-5.86,2.25-9.16
			c0-3.88-0.83-6.66-2.47-8.36c-1.65-1.69-3.83-2.54-6.54-2.54c-3.59,0-6.76,1.33-9.52,4c-2.76,2.67-5.07,6.11-6.91,10.32
			c-1.84,4.22-3.22,8.7-4.14,13.45c-0.92,4.75-1.38,9.26-1.38,13.52c0,6.5,1.11,11.29,3.34,14.4c2.23,3.1,5.82,4.65,10.76,4.65
			c3.97,0,8.19-1.21,12.65-3.63c4.46-2.42,8.63-6.83,12.51-13.23l2.91,2.04c-3.1,5.62-7.08,10.23-11.92,13.82
			C881.07,285.69,875.21,287.48,868.32,287.48z"/>
		<path class="st0" d="M904.97,285.59l15.56-65.44h15.56l-16.14,65.44H904.97z M906.86,223.79v-3.64h27.48v3.64H906.86z
			 M958.19,287.48c-3.39,0-6.08-0.92-8.07-2.76c-1.99-1.84-2.98-4.27-2.98-7.27c0-0.78,0.07-1.55,0.22-2.33
			c0.15-0.77,0.27-1.5,0.36-2.18l9.45-39.56c0.19-0.77,0.34-1.45,0.44-2.04c0.1-0.58,0.15-1.21,0.15-1.89c0-1.74-0.49-3-1.45-3.78
			c-0.97-0.78-2.28-1.16-3.93-1.16c-2.13,0-4.39,0.66-6.76,1.96c-2.38,1.31-4.68,3.18-6.91,5.6c-2.23,2.42-4.24,5.29-6.04,8.58
			c-1.79,3.3-3.22,6.93-4.29,10.91l4.07-18.47h1.02c2.91-3.78,6.57-7.17,10.98-10.18c4.41-3,9.28-4.51,14.62-4.51
			c3.68,0,6.86,0.92,9.53,2.76c2.67,1.84,4,4.85,4,9.02c0,1.84-0.29,4.02-0.87,6.54l-8.73,34.76c-0.29,1.26-0.49,2.28-0.58,3.05
			c-0.1,0.78-0.15,1.41-0.15,1.89c0,2.42,1.07,3.64,3.2,3.64c2.13,0,4.44-1.4,6.91-4.22c2.47-2.81,5.21-7.61,8.22-14.4l2.91,1.31
			c-1.84,4.27-3.98,8.29-6.4,12.07c-2.42,3.78-5.19,6.83-8.29,9.16C965.7,286.32,962.17,287.48,958.19,287.48z"/>
		<path class="st0" d="M1015.34,285.59l25.89-109.65h15.56l-26.47,109.65H1015.34z M1026.83,179.58v-3.64h28.21v3.64H1026.83z
			 M1069,287.48c-3.39,0-6.08-0.92-8.07-2.76c-1.99-1.84-2.98-4.27-2.98-7.27c0-0.78,0.07-1.55,0.22-2.33
			c0.15-0.77,0.27-1.5,0.36-2.18l9.6-39.85c0.19-0.77,0.34-1.45,0.44-2.04c0.09-0.58,0.15-1.16,0.15-1.75
			c0-1.65-0.49-2.86-1.46-3.64c-0.97-0.78-2.28-1.16-3.93-1.16c-2.91,0-6.01,1.16-9.31,3.49c-3.3,2.33-6.33,5.5-9.09,9.53
			c-2.76,4.02-4.87,8.61-6.33,13.74l4.07-18.47h1.02c2.91-3.68,6.69-7,11.34-9.96c4.65-2.96,9.65-4.44,14.98-4.44
			c3.68,0,6.86,0.92,9.53,2.76c2.67,1.84,4,4.8,4,8.87c0,1.75-0.29,3.88-0.87,6.4l-8.87,35.05c-0.29,1.26-0.49,2.28-0.58,3.05
			c-0.1,0.78-0.15,1.41-0.15,1.89c0,2.42,1.07,3.64,3.2,3.64c2.13,0,4.44-1.4,6.91-4.22c2.47-2.81,5.21-7.61,8.22-14.4l2.91,1.31
			c-1.84,4.27-3.98,8.29-6.4,12.07c-2.42,3.78-5.19,6.83-8.29,9.16C1076.52,286.32,1072.98,287.48,1069,287.48z"/>
		<path class="st0" d="M1114.96,287.34c-3.69,0-6.88-0.95-9.6-2.84c-2.72-1.89-4.07-4.92-4.07-9.09c0-1.84,0.29-3.97,0.87-6.4
			l11.92-48.86h15.12l-12.51,52.21c-0.1,0.68-0.22,1.33-0.36,1.96c-0.15,0.63-0.22,1.24-0.22,1.82c0,1.65,0.51,2.86,1.53,3.63
			c1.02,0.78,2.3,1.16,3.85,1.16c2.23,0,4.51-0.68,6.83-2.04c2.33-1.36,4.56-3.27,6.69-5.74c2.13-2.47,4.05-5.31,5.74-8.51
			c1.7-3.2,3.08-6.69,4.14-10.47l-3.2,17.45h-1.02c-3.01,3.98-6.67,7.59-10.98,10.83C1125.4,285.71,1120.48,287.34,1114.96,287.34z
			 M1102.59,223.79v-3.64h23.12v3.64H1102.59z M1153.06,287.34c-1.84,0-3.69-0.41-5.53-1.24c-1.84-0.82-3.34-2.23-4.51-4.22
			c-1.16-1.99-1.75-4.73-1.75-8.22c0-1.36,0.12-2.91,0.36-4.65c0.24-1.75,0.6-3.68,1.09-5.82l10.33-43.04h14.83l-10.91,44.06
			c-0.68,3.01-1.21,5.55-1.6,7.63c-0.39,2.09-0.58,3.76-0.58,5.02c0,2.91,0.97,4.36,2.91,4.36c2.04,0,4.29-1.53,6.76-4.58
			s5.06-7.39,7.78-13.02l2.91,1.31c-1.94,4.65-4.02,8.65-6.25,12c-2.23,3.34-4.63,5.91-7.2,7.71
			C1159.14,286.44,1156.25,287.34,1153.06,287.34z"/>
		<path class="st0" d="M1179.96,285.59l15.56-65.44h15.56l-16.14,65.44H1179.96z M1181.85,223.79v-3.64h27.48v3.64H1181.85z
			 M1218.06,285.59l12.51-52.21c0.19-0.77,0.34-1.45,0.44-2.04c0.1-0.58,0.15-1.16,0.15-1.75c0-1.84-0.51-3.15-1.53-3.93
			c-1.02-0.78-2.3-1.16-3.85-1.16c-2.81,0-5.7,1.19-8.65,3.56c-2.96,2.38-5.67,5.6-8.14,9.67c-2.47,4.07-4.39,8.68-5.74,13.81
			l4.07-18.47h1.02c2.81-3.78,6.28-7.17,10.4-10.18c4.12-3,8.75-4.51,13.89-4.51c5.53,0,9.33,1.62,11.42,4.87
			c2.08,3.25,2.45,7.73,1.09,13.45l-11.92,48.86H1218.06z M1269.83,287.48c-3.39,0-6.08-0.92-8.07-2.76
			c-1.99-1.84-2.98-4.27-2.98-7.27c0-0.78,0.07-1.55,0.22-2.33c0.15-0.77,0.27-1.5,0.36-2.18l9.45-39.56
			c0.19-0.77,0.34-1.45,0.44-2.04c0.09-0.58,0.14-1.16,0.14-1.75c0-1.84-0.51-3.15-1.53-3.93c-1.02-0.78-2.3-1.16-3.85-1.16
			c-2.81,0-5.7,1.19-8.65,3.56c-2.96,2.38-5.67,5.6-8.14,9.67c-2.47,4.07-4.39,8.68-5.74,13.81l4.07-18.47h1.02
			c2.81-3.78,6.28-7.17,10.4-10.18c4.12-3,8.75-4.51,13.89-4.51c3.68,0,6.83,0.95,9.45,2.84c2.62,1.89,3.93,4.92,3.93,9.09
			c0,1.75-0.29,3.88-0.87,6.4l-8.73,34.76c-0.29,1.26-0.49,2.28-0.58,3.05c-0.1,0.78-0.15,1.41-0.15,1.89c0,2.42,1.07,3.64,3.2,3.64
			c2.13,0,4.44-1.4,6.91-4.22c2.47-2.81,5.21-7.61,8.22-14.4l2.91,1.31c-1.84,4.27-3.98,8.29-6.4,12.07
			c-2.42,3.78-5.19,6.83-8.29,9.16C1277.34,286.32,1273.8,287.48,1269.83,287.48z"/>
		<path class="st0" d="M1324.95,287.48c-5.33,0-9.99-1.21-13.96-3.64c-3.98-2.42-7.08-5.69-9.31-9.82
			c-2.23-4.12-3.34-8.7-3.34-13.74c0-5.14,1.14-10.2,3.42-15.2c2.28-4.99,5.36-9.5,9.23-13.52c3.88-4.02,8.29-7.22,13.23-9.6
			c4.94-2.37,10.13-3.56,15.56-3.56c5.33,0,9.98,1.16,13.96,3.49c3.97,2.33,7.08,5.48,9.31,9.45c2.23,3.98,3.34,8.49,3.34,13.52
			c0,5.14-1.14,10.23-3.42,15.27c-2.28,5.04-5.36,9.62-9.23,13.74c-3.88,4.12-8.29,7.42-13.23,9.89
			C1335.56,286.25,1330.37,287.48,1324.95,287.48z M1325.24,283.85c3.97,0,7.49-1.38,10.54-4.14s5.62-6.35,7.71-10.76
			c2.08-4.41,3.66-9.21,4.73-14.4c1.07-5.19,1.6-10.2,1.6-15.05c0-5.14-0.75-9.33-2.25-12.58c-1.5-3.25-4.34-4.87-8.51-4.87
			c-3.88,0-7.32,1.41-10.33,4.22c-3.01,2.81-5.55,6.47-7.63,10.98c-2.09,4.51-3.66,9.41-4.73,14.69c-1.07,5.29-1.6,10.35-1.6,15.2
			c0,5.43,0.77,9.58,2.33,12.43C1318.64,282.42,1321.36,283.85,1325.24,283.85z"/>
		<path class="st0" d="M1378.02,285.59l15.56-65.44h15.56L1393,285.59H1378.02z M1379.91,223.79v-3.64h27.49v3.64H1379.91z
			 M1399.98,257.23l5.53-23.7h1.02c2.62-4.17,5.67-7.73,9.16-10.69c3.49-2.96,7.03-4.44,10.62-4.44c1.75,0,3.22,0.36,4.44,1.09
			c1.21,0.73,2.16,1.67,2.83,2.84c0.68,1.16,1.02,2.52,1.02,4.07c0,1.94-0.61,3.73-1.82,5.38c-1.21,1.65-3.18,2.47-5.89,2.47
			c-2.23,0-3.81-0.51-4.73-1.53c-0.92-1.02-1.62-2.04-2.11-3.05c-0.49-1.02-1.21-1.53-2.18-1.53c-1.16,0-2.57,0.78-4.22,2.33
			c-1.65,1.55-3.37,3.69-5.16,6.4c-1.79,2.72-3.47,5.82-5.02,9.31C1401.92,249.67,1400.76,253.36,1399.98,257.23z"/>
		<path class="st0" d="M1439.39,287.48c-2.72,0-5.02-0.95-6.91-2.84s-2.83-4.19-2.83-6.91c0-2.81,0.94-5.16,2.83-7.05
			c1.89-1.89,4.19-2.83,6.91-2.83c2.81,0,5.16,0.95,7.05,2.83c1.89,1.89,2.84,4.24,2.84,7.05c0,2.71-0.95,5.02-2.84,6.91
			S1442.2,287.48,1439.39,287.48z"/>
	</g>
</g>
</svg>
